# xmcd CD database file
#
# Track frame offsets:
#	150
#	27364
#	45949
#	63394
#	76634
#	98054
#	112997
#	125951
#	148885
#	161350
#	177736
#	198762
#	211460
#	241078
#	256606
#	272407
#	289743
#	303127
#
# Disc length: 4298 seconds
#
# Revision: 1
# Processed by: cddbd v1.5.1PL0 Copyright (c) Steve Scherf et al.
# Submitted via: CDex 1.51
#
DISCID=ef10c812
DTITLE=Diverse - Salsa Dance Party
DYEAR=1900
DGENRE=Salsa
TTITLE0=Linda Gonzales - popurri de sones
TTITLE1=Pedro Ramenez - timba timbero
TTITLE2=Raul Ramirez - kikeriki
TTITLE3=Havana Mambo - la mecaniquita
TTITLE4=Raul Ramirez - hablenme de jatibonico
TTITLE5=Delores De Santos - suavecito
TTITLE6=Havana Mambo - cuba tu isla
TTITLE7=Raul Ramirez - tu compleanos
TTITLE8=Havana Mambo - capullo de alely
TTITLE9=Las Chicas Marquez - el baile de la bottela
TTITLE10=Havana Mambo - mambomoda
TTITLE11=Las Chicas Marquez - caramelos
TTITLE12=Laura Lopez - bembelegua
TTITLE13=Havana Mambo - vamos pa´casa
TTITLE14=Las Chicas Marquez - noche sin luna
TTITLE15=Havana Mambo - personalidad
TTITLE16=Raul Ramirez - ran kan kan
TTITLE17=Victoria de Villa - la colita
EXTD=
EXTT0=
EXTT1=
EXTT2=
EXTT3=
EXTT4=
EXTT5=
EXTT6=
EXTT7=
EXTT8=
EXTT9=
EXTT10=
EXTT11=
EXTT12=
EXTT13=
EXTT14=
EXTT15=
EXTT16=
EXTT17=
PLAYORDER=
